<svg xmlns="http://www.w3.org/2000/svg" width="1200" height="900" viewBox="0 0 1200 900" fill="none">

  <defs>
    <filter id="shadow" x="-30%" y="-30%" width="160%" height="160%">
      <feDropShadow dx="0" dy="18" stdDeviation="24" flood-color="#000" flood-opacity="0.25"/>
    </filter>
    <filter id="soft" x="-30%" y="-30%" width="160%" height="160%">
      <feDropShadow dx="0" dy="10" stdDeviation="14" flood-color="#000" flood-opacity="0.14"/>
    </filter>
    <filter id="blur"><feGaussianBlur stdDeviation="42"/></filter>
    <linearGradient id="panel" x1="0" y1="0" x2="1" y2="1">
      <stop offset="0%" stop-color="#ffffff" stop-opacity="0.98"/>
      <stop offset="100%" stop-color="#eef2ff" stop-opacity="0.92"/>
    </linearGradient>
  </defs>

  <rect width="1200" height="900" fill="url(#bg)"/>
  <circle cx="150" cy="130" r="170" fill="rgba(99,102,241,0.18)" filter="url(#blur)"/>
  <circle cx="1010" cy="180" r="220" fill="rgba(168,85,247,0.14)" filter="url(#blur)"/>
  <circle cx="930" cy="760" r="240" fill="rgba(255,255,255,0.08)" filter="url(#blur)"/>
  <g filter="url(#shadow)"><rect x="94" y="86" width="1012" height="728" rx="36" fill="rgba(2,6,23,0.55)" stroke="rgba(255,255,255,0.10)"/></g>
  <g filter="url(#soft)"><rect x="132" y="170" width="936" height="612" rx="30" fill="rgba(15,23,42,0.96)"/></g>
  <g>
    <rect x="160" y="196" width="880" height="74" rx="22" fill="rgba(255,255,255,0.04)" stroke="rgba(255,255,255,0.08)"/>
    <text x="190" y="243" font-family="Inter, system-ui, sans-serif" font-size="22" font-weight="900" fill="#fff">Consulting Portfolio</text>
    <text x="190" y="264" font-family="Inter, system-ui, sans-serif" font-size="11" font-weight="700" fill="rgba(255,255,255,0.52)">Growth / Strategy / Analytics</text>
    <g font-family="Inter, system-ui, sans-serif" font-size="11" font-weight="700" fill="rgba(255,255,255,0.68)"><text x="650" y="245">Services</text><text x="720" y="245">Cases</text><text x="772" y="245">Blog</text><text x="836" y="245">Company</text></g>
    <rect x="958" y="212" width="44" height="34" rx="17" fill="#6366f1"/><text x="967" y="234" font-family="Inter, system-ui, sans-serif" font-size="11" font-weight="800" fill="#fff">Login</text>
  </g>
  <g>
    <rect x="160" y="304" width="422" height="436" rx="30" fill="url(#hero)"/>
    <text x="198" y="350" font-family="Inter, system-ui, sans-serif" font-size="12" font-weight="800" fill="rgba(255,255,255,0.68)">GROWTH PARTNER</text>
    <text x="198" y="403" font-family="Inter, system-ui, sans-serif" font-size="40" font-weight="900" fill="#fff">Web leads</text>
    <text x="198" y="448" font-family="Inter, system-ui, sans-serif" font-size="40" font-weight="900" fill="#a5b4fc">Avg +32%</text>
    <text x="198" y="488" font-family="Inter, system-ui, sans-serif" font-size="18" font-weight="700" fill="rgba(255,255,255,0.78)">Strategy / Funnel / Measurement / Growth</text>
    <rect x="198" y="524" width="164" height="46" rx="23" fill="#6366f1"/><text x="228" y="553" font-family="Inter, system-ui, sans-serif" font-size="16" font-weight="800" fill="#fff">Book a Call</text>
    <rect x="374" y="524" width="126" height="46" rx="23" fill="rgba(255,255,255,0.08)" stroke="rgba(255,255,255,0.12)"/><text x="404" y="553" font-family="Inter, system-ui, sans-serif" font-size="15" font-weight="700" fill="#fff">Case Studies</text>
    <g opacity="0.95">
      <circle cx="372" cy="400" r="84" fill="rgba(99,102,241,0.18)"/>
      <circle cx="372" cy="400" r="50" fill="rgba(255,255,255,0.10)"/>
      <path d="M340 418 L364 382 L384 396 L406 360" stroke="#c7d2fe" stroke-width="8" stroke-linecap="round" stroke-linejoin="round"/>
      <path d="M332 446 C360 430 392 430 420 414" stroke="rgba(255,255,255,0.22)" stroke-width="4"/>
    </g>
  </g>
  <g>
    <rect x="608" y="304" width="412" height="196" rx="26" fill="rgba(255,255,255,0.04)" stroke="rgba(255,255,255,0.08)"/>
    <text x="638" y="344" font-family="Inter, system-ui, sans-serif" font-size="15" font-weight="800" fill="#fff">Client Results</text>
    <g transform="translate(638 366)">
      <rect x="0" y="0" width="82" height="112" rx="20" fill="rgba(255,255,255,0.05)"/>
      <rect x="94" y="0" width="82" height="112" rx="20" fill="rgba(255,255,255,0.05)"/>
      <rect x="188" y="0" width="82" height="112" rx="20" fill="rgba(255,255,255,0.05)"/>
      <rect x="282" y="0" width="86" height="112" rx="20" fill="rgba(255,255,255,0.05)"/>
      <text x="16" y="46" font-family="Inter, system-ui, sans-serif" font-size="22" font-weight="900" fill="#fff">48 clients</text><text x="14" y="70" font-family="Inter, system-ui, sans-serif" font-size="10" font-weight="700" fill="rgba(255,255,255,0.5)">Clients</text>
      <text x="110" y="46" font-family="Inter, system-ui, sans-serif" font-size="22" font-weight="900" fill="#fff">+32%</text><text x="106" y="70" font-family="Inter, system-ui, sans-serif" font-size="10" font-weight="700" fill="rgba(255,255,255,0.5)">CVR</text>
      <text x="204" y="46" font-family="Inter, system-ui, sans-serif" font-size="22" font-weight="900" fill="#fff">3x</text><text x="200" y="70" font-family="Inter, system-ui, sans-serif" font-size="10" font-weight="700" fill="rgba(255,255,255,0.5)">Lift</text>
      <text x="296" y="46" font-family="Inter, system-ui, sans-serif" font-size="22" font-weight="900" fill="#fff">A/B</text><text x="294" y="70" font-family="Inter, system-ui, sans-serif" font-size="10" font-weight="700" fill="rgba(255,255,255,0.5)">A/B</text>
    </g>
  </g>
  <g>
    <rect x="608" y="522" width="412" height="218" rx="26" fill="rgba(255,255,255,0.04)" stroke="rgba(255,255,255,0.08)"/>
    <text x="638" y="560" font-family="Inter, system-ui, sans-serif" font-size="15" font-weight="800" fill="#fff">Dashboard</text>
    <g transform="translate(638 584)">
      <rect x="0" y="0" width="168" height="112" rx="20" fill="rgba(255,255,255,0.05)"/>
      <rect x="182" y="0" width="168" height="112" rx="20" fill="rgba(255,255,255,0.05)"/>
      <path d="M22 82 L54 64 L82 70 L118 40 L146 28" stroke="#a5b4fc" stroke-width="4" fill="none" stroke-linecap="round" stroke-linejoin="round"/>
      <path d="M204 82 L236 68 L270 52 L314 56 L338 38" stroke="#67e8f9" stroke-width="4" fill="none" stroke-linecap="round" stroke-linejoin="round"/>
      <circle cx="54" cy="64" r="4" fill="#fff"/><circle cx="82" cy="70" r="4" fill="#fff"/><circle cx="118" cy="40" r="4" fill="#fff"/>
      <circle cx="236" cy="68" r="4" fill="#fff"/><circle cx="270" cy="52" r="4" fill="#fff"/><circle cx="314" cy="56" r="4" fill="#fff"/>
    </g>
  </g>
</svg>